HIERARCHY
ROOT joint_Root
{
	OFFSET 0.0 0.0 0.0
	CHANNELS 6 Xposition Yposition Zposition Zrotation Xrotation Yrotation 
	JOINT Hips
	{
		OFFSET 4.5925 91.4895 -427.239
		CHANNELS 6 Xposition Yposition Zposition Zrotation Xrotation Yrotation 
		JOINT Spine
		{
			OFFSET 15.7357 0.0 0.0
			CHANNELS 6 Xposition Yposition Zposition Zrotation Xrotation Yrotation 
			JOINT Chest
			{
				OFFSET 8.98455 -0.406207 0.0
				CHANNELS 6 Xposition Yposition Zposition Zrotation Xrotation Yrotation 
				JOINT Neck
				{
					OFFSET 16.3773 0.0 0.0
					CHANNELS 6 Xposition Yposition Zposition Zrotation Xrotation Yrotation 
					JOINT Head
					{
						OFFSET 6.45672 0.0 0.0
						CHANNELS 6 Xposition Yposition Zposition Zrotation Xrotation Yrotation 
						End Site
						{
							OFFSET 0.0 0.0 0.0
						}
					}
				}
				JOINT Shoulder_L
				{
					OFFSET 12.9942 -0.242716 4.98039
					CHANNELS 6 Xposition Yposition Zposition Zrotation Xrotation Yrotation 
					JOINT UpperArm_L
					{
						OFFSET 5.34809 0.0 0.0
						CHANNELS 6 Xposition Yposition Zposition Zrotation Xrotation Yrotation 
						JOINT LowerArm_L
						{
							OFFSET 24.3286 1.87007e-05 0.0
							CHANNELS 6 Xposition Yposition Zposition Zrotation Xrotation Yrotation 
							JOINT Hand_L
							{
								OFFSET 22.2916 0.0 0.0
								CHANNELS 6 Xposition Yposition Zposition Zrotation Xrotation Yrotation 
								End Site
								{
									OFFSET 0.0 0.0 0.0
								}
							}
						}
					}
				}
				JOINT Shoulder_R
				{
					OFFSET 12.9945 -0.242716 -4.98039
					CHANNELS 6 Xposition Yposition Zposition Zrotation Xrotation Yrotation 
					JOINT UpperArm_R
					{
						OFFSET -5.34813 0.0 0.0
						CHANNELS 6 Xposition Yposition Zposition Zrotation Xrotation Yrotation 
						JOINT LowerArm_R
						{
							OFFSET -24.3289 0.000322201 0.0
							CHANNELS 6 Xposition Yposition Zposition Zrotation Xrotation Yrotation 
							JOINT Hand_R
							{
								OFFSET -22.2915 -0.000108084 0.0
								CHANNELS 6 Xposition Yposition Zposition Zrotation Xrotation Yrotation 
								End Site
								{
									OFFSET 0.0 0.0 0.0
								}
							}
						}
					}
				}
			}
		}
		JOINT UpperLeg_L
		{
			OFFSET -2.19248 -6.46944 0.0
			CHANNELS 6 Xposition Yposition Zposition Zrotation Xrotation Yrotation 
			JOINT LowerLeg_L
			{
				OFFSET 39.0811 0.0 -1.23785e-05
				CHANNELS 6 Xposition Yposition Zposition Zrotation Xrotation Yrotation 
				JOINT Foot_L
				{
					OFFSET 40.9854 0.0 -1.26872e-05
					CHANNELS 6 Xposition Yposition Zposition Zrotation Xrotation Yrotation 
					JOINT Toes_L
					{
						OFFSET 11.7543 0.0 0.0
						CHANNELS 6 Xposition Yposition Zposition Zrotation Xrotation Yrotation 
						End Site
						{
							OFFSET 0.0 0.0 0.0
						}
					}
				}
			}
		}
		JOINT UpperLeg_R
		{
			OFFSET -2.19251 6.46944 0.0
			CHANNELS 6 Xposition Yposition Zposition Zrotation Xrotation Yrotation 
			JOINT LowerLeg_R
			{
				OFFSET -39.0811 -0.00228153 -0.0401928
				CHANNELS 6 Xposition Yposition Zposition Zrotation Xrotation Yrotation 
				JOINT Foot_R
				{
					OFFSET -40.9854 0.0 0.0
					CHANNELS 6 Xposition Yposition Zposition Zrotation Xrotation Yrotation 
					JOINT Toes_R
					{
						OFFSET -11.7543 0.0 0.0
						CHANNELS 6 Xposition Yposition Zposition Zrotation Xrotation Yrotation 
						End Site
						{
							OFFSET 0.0 0.0 0.0
						}
					}
				}
			}
		}
	}
}
MOTION
Frames:	4
Frame Time:	0.0333333
0.000000 0.000000 0.000000 0.000000 0.000000 -0.000000 -1.662600 84.409500 -1.331330 87.704700 0.217378 7.689400 15.735700 0.000005 -0.000001 84.218200 82.408600 -84.519000 8.984550 -0.406207 -0.000000 7.337600 -1.522720 -0.503224 16.377300 -0.000001 -0.000001 -1.678010 -2.247630 0.432437 6.456720 -0.000001 -0.000000 -1.492440 -0.460032 0.471330 12.994200 -0.242716 4.980390 -91.538100 5.087470 -73.152200 5.348090 -0.000007 -0.000001 -64.055000 28.884200 -11.148400 24.328600 0.000019 0.000005 12.698400 20.659700 -32.571300 22.291600 -0.000001 0.000005 13.802500 5.328030 -0.742668 12.994500 -0.242716 -4.980390 88.028300 10.472700 -79.275000 -5.348130 -0.000001 -0.000004 -61.208800 29.553900 -10.205900 -24.328900 0.000322 -0.000009 0.042021 0.093967 -24.710900 -22.291500 -0.000108 -0.000004 7.994630 5.372580 -1.774980 -2.192480 -6.469440 -0.000000 -172.245000 -10.479600 -16.097800 39.081100 -0.000007 -0.000012 -0.337373 0.224861 56.317200 40.985400 -0.000006 -0.000013 2.364200 9.167260 -82.639300 11.754300 -0.000000 0.000003 -0.000326 -0.002788 -16.681100 -2.192510 6.469440 -0.000001 179.610000 13.146500 165.664000 -39.081100 -0.002282 -0.040193 0.058653 -0.038593 55.151200 -40.985400 0.000008 0.000006 8.267850 5.741060 -83.697700 -11.754300 -0.000006 -0.000006 -0.767619 -0.953208 -16.355700
0.000000 0.000000 0.000000 0.000000 0.000000 -0.000000 -2.042360 86.655800 -0.060632 87.501400 2.825800 8.390540 15.735700 0.000005 -0.000001 81.262400 83.035600 -82.736300 8.984550 -0.406207 -0.000000 5.979060 -2.087320 -2.835660 16.377300 -0.000001 -0.000001 0.248682 -2.282560 0.131575 6.456720 -0.000001 -0.000000 0.782188 -0.916530 2.369070 12.994200 -0.242716 4.980390 -91.423600 4.360930 -71.900900 5.348090 -0.000007 -0.000001 -66.875000 23.442200 -9.665550 24.328600 0.000019 0.000005 11.131100 21.614700 -28.102300 22.291600 -0.000001 0.000005 15.279700 5.141680 4.119730 12.994500 -0.242716 -4.980390 88.145700 9.020090 -78.330800 -5.348130 -0.000001 -0.000004 -62.973500 20.640000 -7.667660 -24.328900 0.000322 -0.000009 1.892200 3.661490 -27.357900 -22.291500 -0.000108 -0.000004 -9.558780 5.148160 4.209740 -2.192480 -6.469440 -0.000000 -171.855000 -8.461420 -11.228600 39.081100 -0.000007 -0.000012 -0.296003 0.259226 48.790300 40.985400 -0.000006 -0.000013 1.836920 10.077600 -79.551900 11.754300 -0.000000 0.000003 -0.000267 -0.002362 -16.665900 -2.192510 6.469440 -0.000001 179.680000 14.350500 171.281000 -39.081100 -0.002282 -0.040193 0.050389 -0.043283 47.438200 -40.985400 0.000008 0.000006 7.643290 5.012600 -80.247100 -11.754300 -0.000006 -0.000006 -0.994422 -1.235810 -16.779000
0.000000 0.000000 0.000000 0.000000 0.000000 -0.000000 -2.237740 89.350000 0.945110 87.640900 4.175690 6.760410 15.735700 0.000005 -0.000001 77.686200 84.549500 -80.484400 8.984550 -0.406207 -0.000000 2.838490 -2.202430 -5.536320 16.377300 -0.000001 -0.000001 2.990560 -1.802270 -0.053645 6.456720 -0.000001 -0.000000 2.408660 -0.992694 3.622140 12.994200 -0.242716 4.980390 -91.299000 3.554520 -69.904000 5.348090 -0.000007 -0.000001 -67.765900 20.725500 -7.703740 24.328600 0.000019 0.000005 7.719780 17.250300 -24.564200 22.291600 -0.000001 0.000005 15.262600 5.098690 5.137640 12.994500 -0.242716 -4.980390 88.251400 7.390740 -76.647400 -5.348130 -0.000001 -0.000004 -57.294800 11.854800 -10.184200 -24.328900 0.000322 -0.000009 2.566470 3.996130 -32.764400 -22.291500 -0.000108 -0.000004 -22.761400 5.083990 5.479650 -2.192480 -6.469440 -0.000000 -172.062000 -8.511690 -7.052680 39.081100 -0.000007 -0.000012 -0.188151 0.240493 38.038400 40.985400 -0.000006 -0.000013 1.181800 11.341300 -74.667700 11.754300 -0.000000 0.000003 -0.000109 -0.001104 -16.619900 -2.192510 6.469440 -0.000001 -179.794000 14.098200 175.215000 -39.081100 -0.002282 -0.040193 0.032657 -0.038657 37.227800 -40.985400 0.000008 0.000006 7.057450 4.317810 -74.428800 -11.754300 -0.000006 -0.000006 -1.126350 -1.372560 -17.932400
0.000000 0.000000 0.000000 0.000000 0.000000 -0.000000 -2.038680 91.296900 1.550920 87.498100 4.313120 5.107010 15.735700 0.000005 -0.000001 75.729100 85.959600 -79.349600 8.984550 -0.406207 -0.000000 0.020840 -1.747040 -7.236310 16.377300 -0.000001 -0.000001 5.003660 -1.449640 -0.875114 6.456720 -0.000001 -0.000000 3.600330 -0.780168 4.184050 12.994200 -0.242716 4.980390 -90.927100 2.351830 -68.476500 5.348090 -0.000007 -0.000001 -68.983800 17.894700 -4.053000 24.328600 0.000019 0.000005 7.973650 16.931000 -25.684600 22.291600 -0.000001 0.000005 11.223600 5.157710 3.733410 12.994500 -0.242716 -4.980390 88.420500 6.195220 -75.666100 -5.348130 -0.000001 -0.000004 -46.552500 -0.197684 -15.875000 -24.328900 0.000322 -0.000009 3.859350 4.351560 -41.634800 -22.291500 -0.000108 -0.000004 -4.696650 5.327450 0.076236 -2.192480 -6.469440 -0.000000 -172.290000 -9.359980 -3.444810 39.081100 -0.000007 -0.000012 -0.067263 0.124628 28.356400 40.985400 -0.000006 -0.000013 1.329910 11.941100 -70.360700 11.754300 -0.000000 0.000003 -0.413976 -0.523296 -16.263100 -2.192510 6.469440 -0.000001 -179.931000 16.685100 177.683000 -39.081100 -0.002282 -0.040193 0.020212 -0.030129 29.301200 -40.985400 0.000008 0.000006 7.135960 7.105750 -68.704400 -11.754300 -0.000006 -0.000006 -0.967541 -1.151800 -19.317100
